# xmcd
#
# Track frame offsets:
#	150
#	9607
#	22783
#	38160
#	49795
#	63300
#	77443
#	87426
#	99388
#	122909
#	136235
#	171924
#	196926
#	213103
#	225739
#	235075
#
# Disc length: 3296 seconds
#
# Revision: 0
# Processed by: cddbd v1.5.1PL0 Copyright (c) Steve Scherf et al.
# Submitted via: dBpowerAMP V4.0
#
DISCID=c30cde10
DTITLE=Big Joe Williams - Highway 49 Revisites
DYEAR=1900
DGENRE=Blues
TTITLE0=Baby Please Don't Go
TTITLE1=Highway 49
TTITLE2=Shaggy Hound Blues
TTITLE3=Ramblin' and Wanderin' Blues
TTITLE4=Don't the Apples Look Mellow Hangin'
TTITLE5=Mean Mistreater
TTITLE6=Prison Bound
TTITLE7=Stack O' Dollars
TTITLE8=I've Been Burned and I've Been Scorned
TTITLE9=I Feel So Worried
TTITLE10=Ain't Nothin' Like Whisky
TTITLE11=Brand New Car
TTITLE12=So Soon I'll Be Goin' My Way Back Home
TTITLE13=Shake 'Em On Down
TTITLE14=Jump Baby Jump
TTITLE15=Everybody's Gonna Miss Me When I'm Gone
EXTD=
EXTT0=
EXTT1=
EXTT2=
EXTT3=
EXTT4=
EXTT5=
EXTT6=
EXTT7=
EXTT8=
EXTT9=
EXTT10=
EXTT11=
EXTT12=
EXTT13=
EXTT14=
EXTT15=
PLAYORDER=
